<svg xmlns="http://www.w3.org/2000/svg" xmlns:xlink="http://www.w3.org/1999/xlink" width="500" zoomAndPan="magnify" viewBox="0 0 375 374.999991" height="500" preserveAspectRatio="xMidYMid meet" version="1.0"><path fill="#1b136a" d="M 218.058594 179.851562 C 216.902344 172.539062 215.167969 166.246094 209.320312 161.765625 C 204.050781 157.726562 197.160156 156.453125 190.65625 156.914062 C 182.785156 157.472656 175.257812 160.175781 161.113281 164.589844 C 160.710938 164.714844 160.742188 165.226562 161.015625 165.394531 C 160.734375 165.542969 160.554688 165.660156 160.316406 165.835938 C 161.257812 163.925781 162.597656 161.214844 163.886719 158.515625 C 164.035156 158.203125 163.582031 157.929688 163.421875 158.242188 C 161.332031 162.316406 153.9375 177.171875 152.339844 180.539062 C 149.074219 187.417969 146.125 194.765625 146.105469 202.5 C 146.09375 205.949219 146.621094 209.585938 148.4375 212.582031 C 151.996094 218.457031 159.839844 219.453125 166.726562 220.078125 C 178.359375 221.136719 190.839844 219.765625 201.65625 215.972656 C 208.910156 213.429688 213.851562 209.84375 216.808594 202.703125 C 219.808594 195.460938 219.257812 187.421875 218.058594 179.851562 Z M 218.058594 179.851562 " fill-opacity="1" fill-rule="nonzero"/><path fill="#ffaa00" d="M 253.273438 142.253906 C 252.695312 141.507812 251.648438 141.421875 250.84375 141.828125 C 250.359375 142.074219 249.96875 142.464844 249.632812 142.902344 C 249.667969 142.578125 249.703125 142.253906 249.730469 141.925781 C 249.84375 140.527344 250.148438 138.621094 248.871094 137.640625 C 248.378906 137.265625 247.734375 137.148438 247.160156 137.402344 C 246.804688 137.5625 246.523438 137.839844 246.300781 138.160156 C 246.25 137.335938 246.117188 136.367188 245.472656 135.832031 C 244.621094 135.121094 243.160156 135.503906 242.625 137.261719 C 242.574219 137.425781 242.527344 137.597656 242.484375 137.765625 C 242.28125 136.375 241.816406 134.707031 240.226562 135.210938 C 239.328125 135.496094 238.910156 136.359375 238.671875 137.210938 C 238.421875 138.121094 237.28125 142.566406 237.105469 143.261719 C 236.78125 142.550781 236.394531 141.8125 235.871094 141.25 C 234.566406 139.828125 232.972656 140.03125 232.707031 142.058594 C 232.21875 145.78125 231.894531 150.808594 233.238281 154.316406 C 231.476562 158.433594 230.855469 158.964844 230.863281 159.703125 C 230.875 161.347656 233.191406 162.554688 235.179688 163.585938 C 235.179688 163.585938 238.878906 165.511719 243.308594 165.496094 C 244.007812 165.496094 244.972656 165.433594 245.625 164.765625 C 246.539062 163.835938 245.960938 163.050781 247.542969 158.628906 C 248.949219 157.546875 249.746094 156.460938 250.203125 155.714844 C 251.742188 153.191406 251.226562 152.371094 252.453125 148.363281 C 253.320312 145.527344 254.234375 143.5 253.273438 142.253906 Z M 253.273438 142.253906 " fill-opacity="1" fill-rule="nonzero"/><path fill="#1b136a" d="M 242.566406 137.21875 C 242.539062 137.023438 242.238281 136.933594 242.191406 137.167969 C 242.097656 137.628906 242.085938 138.109375 242.035156 138.578125 C 241.835938 140.480469 241.460938 141.363281 241.152344 142.722656 C 241.105469 142.929688 241.414062 143.085938 241.515625 142.875 C 242.222656 141.390625 242.699219 138.234375 242.566406 137.21875 Z M 242.566406 137.21875 " fill-opacity="1" fill-rule="nonzero"/><path fill="#1b136a" d="M 246.070312 138.121094 C 246.023438 137.949219 245.71875 137.917969 245.691406 138.121094 C 245.625 138.597656 245.660156 139.085938 245.640625 139.566406 C 245.589844 140.597656 245.375 141.738281 245.117188 142.605469 C 244.972656 143.097656 244.742188 143.570312 244.609375 144.066406 C 244.546875 144.304688 244.863281 144.421875 244.992188 144.230469 C 245.429688 143.574219 245.859375 142.007812 245.992188 141.234375 C 246.128906 140.457031 246.289062 138.890625 246.070312 138.121094 Z M 246.070312 138.121094 " fill-opacity="1" fill-rule="nonzero"/><path fill="#1b136a" d="M 249.9375 142.179688 C 249.917969 142.054688 249.722656 142.003906 249.648438 142.101562 C 249.394531 142.425781 249.335938 142.921875 249.226562 143.3125 C 248.960938 144.257812 248.890625 144.546875 248.535156 145.902344 C 248.421875 146.328125 248.261719 146.773438 248.234375 147.210938 C 248.21875 147.40625 248.515625 147.488281 248.601562 147.3125 C 248.777344 146.960938 248.761719 146.890625 249.351562 144.734375 C 249.46875 144.304688 249.582031 143.871094 249.695312 143.441406 C 249.796875 143.046875 249.992188 142.585938 249.9375 142.179688 Z M 249.9375 142.179688 " fill-opacity="1" fill-rule="nonzero"/><path fill="#1b136a" d="M 247.277344 148.558594 C 244.785156 145.957031 241.164062 144.550781 237.582031 144.578125 C 237.367188 144.578125 237.25 144.851562 237.40625 145.007812 C 238.320312 145.90625 238.898438 147.082031 239.097656 148.347656 C 239.304688 149.636719 239.046875 150.867188 238.550781 152.058594 C 238.464844 152.265625 238.792969 152.386719 238.90625 152.207031 C 240.25 150.046875 239.726562 147.011719 238.15625 145.089844 C 241.457031 145.21875 244.574219 146.589844 247.019531 148.820312 C 247.191406 148.976562 247.441406 148.730469 247.277344 148.558594 Z M 247.277344 148.558594 " fill-opacity="1" fill-rule="nonzero"/><path fill="#4a53e2" d="M 161.703125 146.410156 C 161.449219 137.5625 155.039062 130.453125 145.351562 128.800781 C 137.824219 127.519531 128.742188 129.78125 124.425781 136.082031 C 120.476562 139.632812 119.375 145.273438 120.710938 150.234375 C 122.882812 158.277344 131.796875 164.808594 143.867188 163.371094 C 146.179688 166.972656 150.570312 168.25 154.320312 166.910156 C 154.664062 166.785156 154.761719 166.308594 154.421875 166.105469 C 152.867188 165.175781 151.574219 163.648438 150.886719 161.644531 C 158.148438 158.765625 161.894531 153.144531 161.703125 146.410156 Z M 161.703125 146.410156 " fill-opacity="1" fill-rule="nonzero"/><path fill="#4a53e2" d="M 149.4375 204.222656 C 149.242188 210.628906 144.585938 215.765625 137.570312 216.945312 C 132.121094 217.859375 125.546875 216.210938 122.429688 211.636719 C 119.578125 209.0625 118.789062 204.976562 119.765625 201.386719 C 121.351562 195.566406 127.816406 190.851562 136.554688 191.914062 C 138.230469 189.308594 141.414062 188.390625 144.125 189.367188 C 144.378906 189.457031 144.449219 189.800781 144.199219 189.949219 C 143.074219 190.621094 142.132812 191.726562 141.632812 193.171875 C 146.886719 195.269531 149.589844 199.347656 149.4375 204.222656 Z M 149.4375 204.222656 " fill-opacity="1" fill-rule="nonzero"/><path fill="#4a53e2" d="M 191.914062 125.980469 C 192.09375 119.667969 196.667969 114.59375 203.578125 113.417969 C 208.945312 112.503906 215.425781 114.113281 218.503906 118.613281 C 221.320312 121.140625 222.105469 125.167969 221.152344 128.707031 C 219.605469 134.445312 213.246094 139.101562 204.636719 138.078125 C 202.988281 140.644531 199.855469 141.554688 197.179688 140.601562 C 196.933594 140.511719 196.863281 140.171875 197.105469 140.027344 C 198.214844 139.367188 199.136719 138.273438 199.628906 136.847656 C 194.449219 134.792969 191.777344 130.78125 191.914062 125.980469 Z M 191.914062 125.980469 " fill-opacity="1" fill-rule="nonzero"/><path fill="#e5e5ff" d="M 145.558594 132.648438 C 143.050781 130.59375 139 130.878906 136.734375 133.183594 C 134.539062 135.414062 134.070312 139.335938 136.773438 141.355469 C 137.425781 141.84375 138.289062 141.175781 138.308594 140.472656 C 138.359375 138.613281 138.417969 135.992188 140.457031 135.152344 C 142.914062 134.136719 144.949219 136.292969 144.984375 138.667969 C 145.058594 143.96875 137.898438 146.257812 139.15625 151.800781 C 139.378906 152.789062 140.835938 152.527344 140.871094 151.566406 C 141.003906 147.777344 145.3125 146.515625 147.300781 141.964844 C 148.65625 138.859375 148.308594 134.90625 145.558594 132.648438 Z M 145.558594 132.648438 " fill-opacity="1" fill-rule="nonzero"/><path fill="#e5e5ff" d="M 141.632812 155.160156 C 141.363281 154.878906 141.085938 154.75 140.726562 154.621094 C 140.523438 154.539062 140.308594 154.503906 140.078125 154.515625 C 139.777344 154.507812 139.496094 154.570312 139.234375 154.707031 C 138.617188 154.90625 138.136719 155.503906 137.960938 156.132812 C 137.9375 156.328125 137.910156 156.519531 137.882812 156.714844 C 137.886719 157.375 138.195312 158.082031 138.75 158.441406 C 139.558594 159.183594 141.226562 159.09375 141.976562 157.824219 C 142.046875 157.648438 142.121094 157.476562 142.195312 157.300781 C 142.4375 156.546875 142.15625 155.714844 141.632812 155.160156 Z M 141.632812 155.160156 " fill-opacity="1" fill-rule="nonzero"/><path fill="#e5e5ff" d="M 210.640625 116.863281 C 209.125 115.621094 206.679688 115.792969 205.3125 117.183594 C 203.984375 118.535156 203.699219 120.902344 205.332031 122.125 C 205.726562 122.417969 206.25 122.015625 206.261719 121.589844 C 206.289062 120.46875 206.328125 118.882812 207.558594 118.375 C 209.042969 117.761719 210.273438 119.066406 210.292969 120.5 C 210.339844 123.703125 206.011719 125.085938 206.773438 128.433594 C 206.90625 129.03125 207.789062 128.875 207.808594 128.292969 C 207.890625 126.003906 210.492188 125.242188 211.695312 122.492188 C 212.515625 120.613281 212.304688 118.226562 210.640625 116.863281 Z M 210.640625 116.863281 " fill-opacity="1" fill-rule="nonzero"/><path fill="#e5e5ff" d="M 208.269531 130.464844 C 207.9375 130.113281 207.292969 129.941406 206.820312 130.191406 C 206.445312 130.3125 206.15625 130.671875 206.050781 131.050781 C 206.035156 131.167969 206.019531 131.285156 206.003906 131.40625 C 206.007812 132.335938 206.984375 133.089844 208 132.550781 C 208.199219 132.433594 208.359375 132.273438 208.476562 132.074219 C 208.519531 131.96875 208.566406 131.863281 208.609375 131.757812 C 208.757812 131.304688 208.585938 130.800781 208.269531 130.464844 Z M 208.269531 130.464844 " fill-opacity="1" fill-rule="nonzero"/><path fill="#e5e5ff" d="M 137.371094 196.296875 C 135.855469 195.054688 133.410156 195.230469 132.039062 196.621094 C 130.710938 197.96875 130.429688 200.339844 132.0625 201.558594 C 132.457031 201.851562 132.976562 201.449219 132.988281 201.023438 C 133.019531 199.902344 133.058594 198.316406 134.289062 197.808594 C 135.773438 197.195312 137.003906 198.5 137.023438 199.933594 C 137.070312 203.136719 132.742188 204.519531 133.5 207.867188 C 133.636719 208.464844 134.515625 208.308594 134.539062 207.726562 C 134.617188 205.4375 137.222656 204.675781 138.421875 201.925781 C 139.242188 200.050781 139.03125 197.660156 137.371094 196.296875 Z M 137.371094 196.296875 " fill-opacity="1" fill-rule="nonzero"/><path fill="#e5e5ff" d="M 134.996094 209.898438 C 134.664062 209.546875 134.019531 209.375 133.550781 209.625 C 133.175781 209.746094 132.886719 210.105469 132.78125 210.484375 C 132.765625 210.601562 132.75 210.722656 132.734375 210.839844 C 132.738281 211.769531 133.714844 212.523438 134.730469 211.984375 C 134.929688 211.867188 135.085938 211.707031 135.207031 211.507812 C 135.25 211.402344 135.292969 211.296875 135.339844 211.191406 C 135.484375 210.738281 135.316406 210.234375 134.996094 209.898438 Z M 134.996094 209.898438 " fill-opacity="1" fill-rule="nonzero"/><path fill="#1b136a" d="M 195.785156 117.882812 C 195.363281 117.976562 195.03125 118.507812 194.78125 118.832031 C 191.558594 122.992188 191.460938 128.84375 193.339844 131.933594 C 193.480469 132.164062 193.871094 132.019531 193.785156 131.75 C 193.414062 130.582031 193.050781 129.40625 192.902344 128.183594 C 192.546875 125.195312 193.277344 122.058594 194.972656 119.574219 C 195.648438 118.585938 195.941406 118.449219 196 118.097656 C 196.019531 117.964844 195.921875 117.851562 195.785156 117.882812 Z M 195.785156 117.882812 " fill-opacity="1" fill-rule="nonzero"/><path fill="#1b136a" d="M 129.808594 193.492188 C 129.28125 193.304688 128.511719 193.566406 127.988281 193.699219 C 123.25 194.914062 120.113281 199.136719 119.992188 203.460938 C 119.980469 203.855469 120.59375 203.824219 120.585938 203.460938 C 120.59375 203.375 120.605469 203.289062 120.617188 203.203125 C 120.679688 203.074219 120.792969 202.925781 120.835938 202.851562 C 120.90625 202.730469 120.808594 202.621094 120.703125 202.613281 C 121.449219 198.285156 124.410156 195.320312 128.171875 194.367188 C 129.320312 194.078125 129.511719 194.195312 129.875 193.988281 C 130.085938 193.863281 130.023438 193.566406 129.808594 193.492188 Z M 129.808594 193.492188 " fill-opacity="1" fill-rule="nonzero"/><path fill="#1b136a" d="M 235.691406 134.464844 C 235.472656 133.640625 234.914062 132.851562 234.5 132.113281 C 234.054688 131.320312 233.605469 130.535156 233.152344 129.75 C 230.671875 125.429688 230.699219 125.449219 230.421875 125.152344 C 230.242188 124.957031 229.917969 125.160156 229.988281 125.40625 C 230.082031 125.742188 230.171875 125.898438 231.1875 127.746094 L 233.785156 132.4375 C 234.214844 133.199219 234.605469 134.109375 235.214844 134.742188 C 235.414062 134.953125 235.765625 134.738281 235.691406 134.464844 Z M 235.691406 134.464844 " fill-opacity="1" fill-rule="nonzero"/><path fill="#1b136a" d="M 241.441406 120.457031 C 241.421875 120.152344 240.96875 120.144531 240.960938 120.457031 C 240.917969 122.949219 241.027344 125.449219 241.089844 127.941406 C 241.097656 128.339844 241.722656 128.339844 241.710938 127.941406 C 241.640625 125.445312 241.617188 122.945312 241.441406 120.457031 Z M 241.441406 120.457031 " fill-opacity="1" fill-rule="nonzero"/><path fill="#1b136a" d="M 251.246094 125.890625 C 250.605469 126.898438 250.292969 127.554688 248.117188 131.800781 C 247.914062 132.195312 248.507812 132.542969 248.707031 132.148438 C 250.625 128.429688 251.234375 127.304688 251.722656 126.09375 C 251.835938 125.808594 251.398438 125.652344 251.246094 125.890625 Z M 251.246094 125.890625 " fill-opacity="1" fill-rule="nonzero"/><path fill="#ffaa00" d="M 178.632812 186.699219 L 194.460938 187.023438 L 193.96875 211.269531 L 178.140625 210.949219 Z M 178.632812 186.699219 " fill-opacity="1" fill-rule="nonzero"/><path fill="#ffaa00" d="M 163.214844 173.417969 C 163.625 165.75 164.714844 157.632812 170.464844 152.515625 C 176.214844 147.398438 184.570312 146.832031 192.242188 147.085938 C 195.167969 147.179688 198.136719 147.410156 200.875 148.53125 C 203.84375 149.75 206.398438 152.242188 206.875 155.410156 C 206.960938 155.996094 206.875 156.542969 206.828125 157.121094 C 209.789062 163.761719 211.320312 171.1875 211.425781 177.941406 C 211.515625 183.921875 209.914062 187.902344 203.976562 191.699219 C 197.476562 195.859375 188.632812 197.855469 179.925781 196.285156 C 174.964844 195.390625 169.742188 193.359375 166.394531 189.421875 C 162.472656 184.804688 162.894531 179.398438 163.214844 173.417969 Z M 163.214844 173.417969 " fill-opacity="1" fill-rule="nonzero"/><path fill="#1b136a" d="M 198.019531 171.335938 C 198.019531 171.601562 197.964844 171.859375 197.863281 172.105469 C 197.761719 172.351562 197.617188 172.570312 197.429688 172.761719 C 197.238281 172.949219 197.023438 173.09375 196.777344 173.195312 C 196.53125 173.300781 196.273438 173.351562 196.003906 173.351562 C 195.738281 173.351562 195.480469 173.300781 195.234375 173.195312 C 194.988281 173.09375 194.773438 172.949219 194.582031 172.761719 C 194.394531 172.570312 194.25 172.351562 194.148438 172.105469 C 194.042969 171.859375 193.992188 171.601562 193.992188 171.335938 C 193.992188 171.066406 194.042969 170.8125 194.148438 170.5625 C 194.25 170.316406 194.394531 170.101562 194.582031 169.910156 C 194.773438 169.722656 194.988281 169.578125 195.234375 169.472656 C 195.480469 169.371094 195.738281 169.320312 196.003906 169.320312 C 196.273438 169.320312 196.53125 169.371094 196.777344 169.472656 C 197.023438 169.578125 197.238281 169.722656 197.429688 169.910156 C 197.617188 170.101562 197.761719 170.316406 197.863281 170.5625 C 197.964844 170.8125 198.019531 171.066406 198.019531 171.335938 Z M 198.019531 171.335938 " fill-opacity="1" fill-rule="nonzero"/><path fill="#1b136a" d="M 180.164062 171.519531 C 180.164062 171.785156 180.109375 172.042969 180.007812 172.289062 C 179.90625 172.535156 179.761719 172.753906 179.574219 172.945312 C 179.382812 173.132812 179.167969 173.277344 178.921875 173.378906 C 178.671875 173.484375 178.417969 173.535156 178.148438 173.535156 C 177.882812 173.535156 177.625 173.484375 177.378906 173.378906 C 177.132812 173.277344 176.917969 173.132812 176.726562 172.945312 C 176.539062 172.753906 176.394531 172.535156 176.292969 172.289062 C 176.1875 172.042969 176.136719 171.785156 176.136719 171.519531 C 176.136719 171.25 176.1875 170.996094 176.292969 170.746094 C 176.394531 170.5 176.539062 170.285156 176.726562 170.09375 C 176.917969 169.90625 177.132812 169.761719 177.378906 169.65625 C 177.625 169.554688 177.882812 169.503906 178.148438 169.503906 C 178.417969 169.503906 178.671875 169.554688 178.921875 169.65625 C 179.167969 169.761719 179.382812 169.90625 179.574219 170.09375 C 179.761719 170.285156 179.90625 170.5 180.007812 170.746094 C 180.109375 170.996094 180.164062 171.25 180.164062 171.519531 Z M 180.164062 171.519531 " fill-opacity="1" fill-rule="nonzero"/><path fill="#1b136a" d="M 174.898438 167.636719 C 175.164062 167.289062 175.445312 167.03125 175.851562 166.855469 C 176.84375 166.421875 178.421875 166.175781 179.4375 166.566406 C 179.910156 166.746094 179.691406 167.308594 179.355469 167.289062 C 178.757812 167.253906 177.671875 166.996094 176.179688 167.648438 C 175.832031 167.800781 175.484375 167.894531 175.125 168.011719 C 174.890625 168.085938 174.769531 167.800781 174.898438 167.636719 Z M 174.898438 167.636719 " fill-opacity="1" fill-rule="nonzero"/><path fill="#1b136a" d="M 195.992188 166.386719 C 195.898438 166.328125 195.910156 166.191406 195.984375 166.128906 C 195.972656 166.140625 196.054688 166.011719 196.066406 166.003906 C 196.207031 165.875 196.355469 165.863281 196.542969 165.839844 C 198.015625 165.652344 200.050781 166.683594 200.402344 167.6875 C 200.492188 167.933594 200.269531 168.238281 199.992188 168.117188 C 199.304688 167.816406 198.800781 167.078125 197.066406 166.722656 C 196.414062 166.589844 196.257812 166.636719 196.078125 166.492188 C 196.0625 166.476562 195.933594 166.351562 195.992188 166.386719 Z M 195.992188 166.386719 " fill-opacity="1" fill-rule="nonzero"/><path fill="#1b136a" d="M 185.441406 175.707031 C 185.980469 174.800781 186.652344 174.578125 187.164062 173.425781 C 187.371094 172.964844 187.484375 172.449219 187.515625 171.945312 C 187.53125 171.691406 187.511719 171.441406 187.496094 171.191406 C 187.472656 170.773438 187.527344 170.671875 187.503906 170.601562 C 187.4375 170.390625 187.761719 170.296875 187.828125 170.503906 C 187.847656 170.558594 187.910156 170.582031 187.941406 170.628906 C 188.003906 170.71875 188.050781 170.84375 188.089844 170.949219 C 188.167969 171.152344 188.191406 171.390625 188.21875 171.605469 C 188.355469 172.839844 187.976562 174.164062 186.984375 175.289062 C 186.453125 175.894531 185.691406 176.589844 186.335938 177.40625 C 186.996094 178.238281 188.09375 178.003906 188.972656 178.355469 C 189.257812 178.46875 189.308594 178.863281 188.984375 178.972656 C 187.992188 179.3125 186.671875 179.003906 185.890625 178.304688 C 185.144531 177.632812 184.914062 176.585938 185.441406 175.707031 Z M 185.441406 175.707031 " fill-opacity="1" fill-rule="nonzero"/><path fill="#1b136a" d="M 180 195.691406 C 180.519531 195.488281 181.164062 195.871094 181.652344 196.027344 C 185.886719 197.394531 189.535156 197.023438 193.679688 195.726562 C 194.074219 195.605469 194.371094 196.214844 193.984375 196.40625 C 190.328125 198.222656 185.289062 198.292969 181.289062 196.96875 C 180.746094 196.789062 180.046875 196.636719 179.796875 196.0625 C 179.730469 195.90625 179.863281 195.746094 180 195.691406 Z M 180 195.691406 " fill-opacity="1" fill-rule="nonzero"/><path fill="#ff6a00" d="M 206.824219 175.929688 C 206.832031 176.300781 206.742188 176.660156 206.550781 177.007812 C 206.359375 177.355469 206.085938 177.664062 205.726562 177.933594 C 205.367188 178.203125 204.953125 178.414062 204.480469 178.566406 C 204.007812 178.71875 203.511719 178.796875 202.996094 178.808594 C 202.480469 178.820312 201.984375 178.757812 201.507812 178.625 C 201.027344 178.492188 200.601562 178.300781 200.234375 178.042969 C 199.863281 177.789062 199.578125 177.492188 199.371094 177.152344 C 199.167969 176.816406 199.0625 176.460938 199.054688 176.089844 C 199.046875 175.71875 199.140625 175.359375 199.328125 175.011719 C 199.519531 174.664062 199.792969 174.355469 200.152344 174.085938 C 200.511719 173.816406 200.929688 173.605469 201.402344 173.453125 C 201.875 173.300781 202.367188 173.222656 202.882812 173.210938 C 203.398438 173.199219 203.894531 173.261719 204.375 173.394531 C 204.851562 173.527344 205.277344 173.71875 205.648438 173.972656 C 206.015625 174.230469 206.304688 174.527344 206.507812 174.867188 C 206.710938 175.203125 206.816406 175.558594 206.824219 175.929688 Z M 206.824219 175.929688 " fill-opacity="1" fill-rule="nonzero"/><path fill="#ff6a00" d="M 176.238281 176.554688 C 176.246094 176.925781 176.15625 177.285156 175.964844 177.628906 C 175.777344 177.976562 175.5 178.285156 175.140625 178.554688 C 174.785156 178.824219 174.367188 179.035156 173.894531 179.1875 C 173.421875 179.339844 172.925781 179.421875 172.410156 179.433594 C 171.898438 179.441406 171.398438 179.382812 170.921875 179.25 C 170.441406 179.117188 170.019531 178.921875 169.648438 178.667969 C 169.277344 178.414062 168.992188 178.117188 168.789062 177.777344 C 168.582031 177.4375 168.476562 177.082031 168.46875 176.710938 C 168.460938 176.339844 168.554688 175.980469 168.742188 175.636719 C 168.933594 175.289062 169.207031 174.980469 169.566406 174.710938 C 169.925781 174.441406 170.34375 174.230469 170.816406 174.078125 C 171.289062 173.925781 171.78125 173.84375 172.296875 173.832031 C 172.8125 173.824219 173.308594 173.882812 173.789062 174.015625 C 174.269531 174.148438 174.691406 174.34375 175.0625 174.597656 C 175.429688 174.851562 175.71875 175.148438 175.921875 175.488281 C 176.125 175.828125 176.234375 176.183594 176.238281 176.554688 Z M 176.238281 176.554688 " fill-opacity="1" fill-rule="nonzero"/><path fill="#b4b2fa" d="M 182.800781 203.8125 C 182.800781 203.8125 160.347656 204.804688 151.613281 219.816406 C 145.699219 229.992188 139.539062 246.183594 145.824219 256.113281 C 149.871094 262.507812 154.746094 259.71875 203.824219 259.832031 C 212.683594 259.851562 222.785156 259.96875 226.144531 253.515625 C 227.535156 250.84375 226.847656 248.816406 225.648438 238.355469 C 223.328125 218.074219 224.847656 216.433594 222.160156 212.945312 C 219.023438 208.878906 212.625 207.753906 199.957031 205.675781 C 192.957031 204.527344 187.046875 204.039062 182.800781 203.8125 Z M 182.800781 203.8125 " fill-opacity="1" fill-rule="nonzero"/><path fill="#b4b2fa" d="M 184.457031 203.800781 C 204.628906 198.585938 212.917969 190.578125 216.6875 183.960938 C 221.472656 175.558594 223.777344 170.144531 223.777344 170.144531 C 227.855469 160.570312 228.652344 154.84375 232.398438 154.03125 C 234.046875 153.671875 234.761719 154.589844 240.253906 157.292969 C 248.929688 161.558594 250.300781 160.820312 251.941406 162.472656 C 256.015625 166.570312 252.851562 176.425781 243.511719 197.199219 C 228.261719 231.109375 224.222656 232.554688 221.863281 232.882812 C 221.863281 232.882812 217.507812 233.488281 194.328125 214.65625 Z M 184.457031 203.800781 " fill-opacity="1" fill-rule="nonzero"/><path fill="#ffaa00" d="M 175.753906 204.808594 C 175.753906 204.808594 181.429688 211.394531 188.617188 210.242188 C 195.804688 209.09375 196.90625 199.671875 196.90625 199.671875 C 189.769531 201 182.707031 202.714844 175.753906 204.808594 Z M 175.753906 204.808594 " fill-opacity="1" fill-rule="nonzero"/><path fill="#1b136a" d="M 213.925781 167.921875 C 212.773438 168.074219 204.800781 169.003906 198.488281 163.191406 C 193.824219 158.898438 192.871094 153.511719 192.644531 151.871094 C 185.261719 163.40625 172.507812 170.316406 158.828125 170.195312 C 159.421875 165.566406 161.964844 149.300781 172.28125 143.589844 C 180.171875 139.226562 189.371094 141.195312 197.144531 145.828125 C 201.890625 143.726562 204.925781 144.769531 205.863281 145.15625 C 211.011719 147.289062 212.390625 154.273438 213.335938 159.066406 C 214.0625 162.757812 214.050781 165.878906 213.925781 167.921875 Z M 213.925781 167.921875 " fill-opacity="1" fill-rule="nonzero"/><path fill="#ffaa00" d="M 217.355469 170.828125 C 217.355469 171.179688 217.320312 171.523438 217.253906 171.867188 C 217.183594 172.210938 217.085938 172.542969 216.949219 172.867188 C 216.816406 173.1875 216.652344 173.496094 216.460938 173.785156 C 216.265625 174.078125 216.046875 174.34375 215.796875 174.59375 C 215.550781 174.839844 215.28125 175.0625 214.992188 175.253906 C 214.703125 175.449219 214.394531 175.613281 214.074219 175.746094 C 213.75 175.878906 213.417969 175.980469 213.078125 176.050781 C 212.734375 176.117188 212.386719 176.152344 212.039062 176.152344 C 211.691406 176.152344 211.34375 176.117188 211 176.050781 C 210.660156 175.980469 210.328125 175.878906 210.003906 175.746094 C 209.683594 175.613281 209.375 175.449219 209.085938 175.253906 C 208.796875 175.0625 208.527344 174.839844 208.28125 174.59375 C 208.03125 174.34375 207.8125 174.078125 207.617188 173.785156 C 207.425781 173.496094 207.261719 173.1875 207.128906 172.867188 C 206.992188 172.542969 206.894531 172.210938 206.824219 171.867188 C 206.757812 171.523438 206.722656 171.179688 206.722656 170.828125 C 206.722656 170.480469 206.757812 170.132812 206.824219 169.789062 C 206.894531 169.445312 206.992188 169.113281 207.128906 168.792969 C 207.261719 168.46875 207.425781 168.160156 207.617188 167.871094 C 207.8125 167.578125 208.03125 167.3125 208.28125 167.0625 C 208.527344 166.816406 208.796875 166.597656 209.085938 166.402344 C 209.375 166.207031 209.683594 166.042969 210.003906 165.910156 C 210.328125 165.777344 210.660156 165.675781 211 165.605469 C 211.34375 165.539062 211.691406 165.503906 212.039062 165.503906 C 212.386719 165.503906 212.734375 165.539062 213.078125 165.605469 C 213.417969 165.675781 213.75 165.777344 214.074219 165.910156 C 214.394531 166.042969 214.703125 166.207031 214.992188 166.402344 C 215.28125 166.597656 215.550781 166.816406 215.796875 167.0625 C 216.046875 167.3125 216.265625 167.578125 216.460938 167.871094 C 216.652344 168.160156 216.816406 168.46875 216.949219 168.792969 C 217.085938 169.113281 217.183594 169.445312 217.253906 169.789062 C 217.320312 170.132812 217.355469 170.480469 217.355469 170.828125 Z M 217.355469 170.828125 " fill-opacity="1" fill-rule="nonzero"/><path fill="#ffaa00" d="M 167.050781 171.855469 C 167.050781 172.203125 167.015625 172.550781 166.949219 172.890625 C 166.878906 173.234375 166.777344 173.566406 166.644531 173.890625 C 166.511719 174.214844 166.347656 174.519531 166.152344 174.8125 C 165.960938 175.101562 165.738281 175.371094 165.492188 175.617188 C 165.246094 175.863281 164.976562 176.085938 164.6875 176.28125 C 164.398438 176.472656 164.089844 176.636719 163.769531 176.773438 C 163.445312 176.90625 163.113281 177.007812 162.769531 177.074219 C 162.429688 177.144531 162.082031 177.175781 161.734375 177.175781 C 161.382812 177.175781 161.039062 177.144531 160.695312 177.074219 C 160.355469 177.007812 160.023438 176.90625 159.699219 176.773438 C 159.375 176.636719 159.070312 176.472656 158.78125 176.28125 C 158.488281 176.085938 158.222656 175.863281 157.972656 175.617188 C 157.726562 175.371094 157.507812 175.101562 157.3125 174.8125 C 157.121094 174.519531 156.957031 174.214844 156.820312 173.890625 C 156.6875 173.566406 156.585938 173.234375 156.519531 172.890625 C 156.453125 172.550781 156.417969 172.203125 156.417969 171.855469 C 156.417969 171.503906 156.453125 171.15625 156.519531 170.816406 C 156.585938 170.472656 156.6875 170.140625 156.820312 169.816406 C 156.957031 169.492188 157.121094 169.1875 157.3125 168.894531 C 157.507812 168.605469 157.726562 168.335938 157.972656 168.089844 C 158.222656 167.84375 158.488281 167.621094 158.78125 167.425781 C 159.070312 167.234375 159.375 167.070312 159.699219 166.933594 C 160.023438 166.800781 160.355469 166.699219 160.695312 166.632812 C 161.039062 166.5625 161.382812 166.53125 161.734375 166.53125 C 162.082031 166.53125 162.429688 166.5625 162.769531 166.632812 C 163.113281 166.699219 163.445312 166.800781 163.769531 166.933594 C 164.089844 167.070312 164.398438 167.234375 164.6875 167.425781 C 164.976562 167.621094 165.246094 167.84375 165.492188 168.089844 C 165.738281 168.335938 165.960938 168.605469 166.152344 168.894531 C 166.347656 169.1875 166.511719 169.492188 166.644531 169.816406 C 166.777344 170.140625 166.878906 170.472656 166.949219 170.816406 C 167.015625 171.15625 167.050781 171.503906 167.050781 171.855469 Z M 167.050781 171.855469 " fill-opacity="1" fill-rule="nonzero"/><path fill="#1b136a" d="M 160.070312 168.628906 C 161.019531 168.210938 162.195312 168.515625 162.988281 169.132812 C 163.816406 169.773438 164.265625 170.851562 164.207031 171.886719 C 164.191406 172.144531 163.914062 172.265625 163.71875 172.101562 C 163.277344 171.742188 162.511719 171.859375 162.210938 172.351562 C 161.890625 172.871094 162.191406 173.511719 162.664062 173.808594 C 162.933594 173.976562 162.777344 174.480469 162.449219 174.359375 C 161.5625 174.027344 161.191406 172.820312 161.699219 172.027344 C 162.109375 171.382812 162.925781 171.175781 163.609375 171.410156 C 163.53125 170.695312 163.1875 170.035156 162.625 169.574219 C 161.910156 168.988281 161.011719 168.910156 160.128906 169.015625 C 159.886719 169.046875 159.882812 168.710938 160.070312 168.628906 Z M 160.070312 168.628906 " fill-opacity="1" fill-rule="nonzero"/><path fill="#1b136a" d="M 213.96875 167.53125 C 213.003906 167.152344 211.839844 167.503906 211.074219 168.152344 C 210.273438 168.828125 209.867188 169.921875 209.96875 170.957031 C 209.996094 171.210938 210.273438 171.320312 210.464844 171.148438 C 210.890625 170.769531 211.660156 170.859375 211.980469 171.335938 C 212.320312 171.84375 212.046875 172.496094 211.585938 172.8125 C 211.324219 172.992188 211.5 173.488281 211.824219 173.351562 C 212.699219 172.984375 213.019531 171.765625 212.480469 170.992188 C 212.042969 170.367188 211.21875 170.191406 210.542969 170.453125 C 210.597656 169.738281 210.910156 169.0625 211.453125 168.578125 C 212.144531 167.964844 213.039062 167.851562 213.925781 167.921875 C 214.167969 167.941406 214.15625 167.605469 213.96875 167.53125 Z M 213.96875 167.53125 " fill-opacity="1" fill-rule="nonzero"/><path fill="#1b136a" d="M 192.355469 185.5625 C 192.355469 186.027344 192.289062 186.476562 192.152344 186.910156 C 192.015625 187.339844 191.820312 187.722656 191.566406 188.050781 C 191.316406 188.382812 191.023438 188.636719 190.695312 188.8125 C 190.363281 188.992188 190.019531 189.082031 189.664062 189.082031 C 189.308594 189.082031 188.964844 188.992188 188.632812 188.8125 C 188.304688 188.636719 188.011719 188.382812 187.761719 188.050781 C 187.507812 187.722656 187.3125 187.339844 187.175781 186.910156 C 187.039062 186.476562 186.972656 186.027344 186.972656 185.5625 C 186.972656 185.09375 187.039062 184.644531 187.175781 184.214844 C 187.3125 183.78125 187.507812 183.402344 187.761719 183.070312 C 188.011719 182.742188 188.304688 182.488281 188.632812 182.308594 C 188.964844 182.128906 189.308594 182.039062 189.664062 182.039062 C 190.019531 182.039062 190.363281 182.128906 190.695312 182.308594 C 191.023438 182.488281 191.316406 182.742188 191.566406 183.070312 C 191.820312 183.402344 192.015625 183.78125 192.152344 184.214844 C 192.289062 184.644531 192.355469 185.09375 192.355469 185.5625 Z M 192.355469 185.5625 " fill-opacity="1" fill-rule="nonzero"/><path fill="#1b136a" d="M 188.152344 248.152344 C 185.875 246.117188 181.910156 243.675781 177.339844 242.027344 C 173.335938 240.582031 169.109375 239.800781 164.796875 239.742188 C 165.191406 237.511719 164.984375 233.378906 164.664062 230.945312 C 164.359375 228.585938 163.53125 224.457031 162.476562 222.320312 C 162.390625 222.148438 162.132812 222.273438 162.175781 222.449219 C 162.519531 223.898438 163.03125 225.304688 163.371094 226.757812 C 164.945312 233.46875 164.285156 238.429688 164.269531 239.734375 C 162.167969 239.730469 160.035156 239.890625 157.984375 240.316406 C 157.726562 240.371094 157.84375 240.734375 158.089844 240.699219 C 162.453125 240.105469 166.074219 239.980469 170.542969 240.742188 C 174.585938 241.429688 178.523438 242.761719 182.144531 244.695312 C 184.179688 245.785156 186.050781 247.101562 187.917969 248.457031 C 188.097656 248.585938 188.316406 248.296875 188.152344 248.152344 Z M 188.152344 248.152344 " fill-opacity="1" fill-rule="nonzero"/><path fill="#ffaa00" d="M 207.945312 257.25 C 207.546875 256.394531 206.71875 255.773438 205.984375 255.21875 C 202.570312 252.648438 197.996094 251.570312 191.449219 249.601562 C 189.871094 249.128906 187.378906 248.167969 186.191406 249.804688 C 184.800781 250.675781 184.222656 252.824219 184.246094 254.34375 C 184.308594 258.054688 187.097656 260.625 190.277344 260.355469 C 192.703125 260.953125 195.480469 260.621094 197.84375 260.480469 C 200.179688 260.34375 202.515625 260.207031 204.851562 260.070312 C 205.71875 260.019531 206.863281 260.121094 207.582031 259.539062 C 208.261719 258.984375 208.292969 257.996094 207.945312 257.25 Z M 207.945312 257.25 " fill-opacity="1" fill-rule="nonzero"/><path fill="#1b136a" d="M 200.894531 257.679688 C 200.414062 257.253906 199.792969 257.042969 199.207031 256.808594 C 198.425781 256.5 197.640625 256.132812 196.820312 255.9375 C 196.613281 255.886719 196.476562 256.179688 196.671875 256.289062 C 198.445312 257.273438 201.054688 257.511719 201 258.914062 C 200.988281 259.191406 200.867188 259.457031 200.660156 259.636719 C 200.441406 259.832031 200.164062 259.871094 199.894531 259.960938 C 199.753906 260.007812 199.765625 260.1875 199.894531 260.238281 C 200.488281 260.46875 201.152344 259.910156 201.355469 259.382812 C 201.59375 258.769531 201.371094 258.105469 200.894531 257.679688 Z M 200.894531 257.679688 " fill-opacity="1" fill-rule="nonzero"/><path fill="#1b136a" d="M 204.265625 256.667969 C 202.429688 255.328125 200.152344 254.367188 199.53125 254.277344 C 199.363281 254.25 199.238281 254.472656 199.40625 254.570312 C 199.898438 254.863281 201.414062 255.273438 203.550781 256.710938 C 204.421875 257.296875 205.375 258.003906 205.355469 259.082031 C 205.34375 259.597656 205.125 259.742188 205.0625 259.996094 C 205.019531 260.15625 205.183594 260.25 205.316406 260.191406 C 205.613281 260.0625 205.742188 259.648438 205.785156 259.351562 C 205.960938 258.207031 205.191406 257.34375 204.265625 256.667969 Z M 204.265625 256.667969 " fill-opacity="1" fill-rule="nonzero"/><path fill="#1b136a" d="M 222.558594 227.488281 C 217.917969 222.441406 214.664062 217.65625 212.53125 210.078125 C 212.460938 209.824219 212.078125 209.929688 212.136719 210.1875 C 213.84375 217.515625 218.1875 224.164062 222.25 227.796875 C 222.457031 227.980469 222.75 227.695312 222.558594 227.488281 Z M 222.558594 227.488281 " fill-opacity="1" fill-rule="nonzero"/><path fill="#1b136a" d="M 248.042969 178.382812 C 247.1875 180.328125 237.8125 201.640625 237.015625 203.609375 C 236.933594 203.808594 237.273438 203.953125 237.367188 203.757812 C 238.289062 201.792969 249.074219 177 248.386719 178.582031 C 248.484375 178.351562 248.148438 178.148438 248.042969 178.382812 Z M 248.042969 178.382812 " fill-opacity="1" fill-rule="nonzero"/><path fill="#1b136a" d="M 232.929688 210.929688 C 232.648438 211.429688 230.578125 215.195312 230.238281 215.910156 C 230.125 216.144531 230.449219 216.34375 230.589844 216.117188 C 230.996094 215.441406 233.03125 211.589844 233.273438 211.128906 C 233.390625 210.902344 233.054688 210.703125 232.929688 210.929688 Z M 232.929688 210.929688 " fill-opacity="1" fill-rule="nonzero"/><path fill="#1b136a" d="M 224.054688 249.070312 C 223.476562 246.089844 222.886719 243.113281 222.292969 240.140625 C 222.242188 239.890625 221.867188 239.996094 221.914062 240.242188 C 222.402344 242.863281 222.894531 245.476562 223.398438 248.09375 C 223.636719 249.332031 224.039062 250.660156 223.882812 251.929688 C 223.746094 253.042969 222.980469 254.0625 221.792969 254.058594 C 221.492188 254.058594 221.511719 254.476562 221.792969 254.511719 C 222.828125 254.648438 223.742188 253.785156 224.113281 252.890625 C 224.617188 251.675781 224.292969 250.304688 224.054688 249.070312 Z M 224.054688 249.070312 " fill-opacity="1" fill-rule="nonzero"/><path fill="#1b136a" d="M 148.1875 232.742188 C 148.277344 232.496094 147.890625 232.394531 147.800781 232.636719 C 145.828125 237.882812 145.277344 243.613281 146.136719 249.148438 C 146.382812 250.726562 146.722656 252.335938 147.265625 253.839844 C 147.34375 254.054688 147.671875 253.972656 147.613281 253.742188 C 146.917969 251.042969 146.367188 248.367188 146.246094 245.574219 C 146.0625 241.238281 146.683594 236.941406 148.1875 232.742188 Z M 148.1875 232.742188 " fill-opacity="1" fill-rule="nonzero"/><path fill="#1b136a" d="M 157.125 257.941406 C 156.296875 258.097656 155.515625 258.105469 154.722656 257.792969 C 153.957031 257.496094 153.296875 256.945312 152.882812 256.234375 C 152.742188 255.988281 152.359375 256.210938 152.503906 256.457031 C 153.511719 258.207031 155.800781 258.917969 157.234375 258.34375 C 157.480469 258.242188 157.390625 257.890625 157.125 257.941406 Z M 157.125 257.941406 " fill-opacity="1" fill-rule="nonzero"/><path fill="#1b136a" d="M 127.179688 157.414062 C 125.945312 156.054688 124.648438 155.105469 123.195312 152.109375 C 122.21875 150.097656 121.640625 147.882812 121.519531 145.644531 C 121.449219 144.371094 121.570312 143.152344 121.703125 141.890625 C 121.734375 141.617188 121.296875 141.566406 121.230469 141.824219 C 120.320312 145.398438 121.1875 150.824219 124.179688 154.984375 C 124.921875 156.015625 125.792969 157.121094 126.84375 157.847656 C 127.113281 158.03125 127.382812 157.636719 127.179688 157.414062 Z M 127.179688 157.414062 " fill-opacity="1" fill-rule="nonzero"/><path fill="#1b136a" d="M 136.296875 162.304688 C 136.039062 162.097656 135.789062 162.039062 134.546875 161.621094 C 133.949219 161.421875 133.355469 161.214844 132.753906 161.042969 C 132.421875 160.945312 132.3125 161.421875 132.613281 161.542969 C 133.265625 161.808594 135.039062 162.4375 135.195312 162.488281 C 135.488281 162.59375 135.800781 162.742188 136.117188 162.738281 C 136.320312 162.734375 136.476562 162.449219 136.296875 162.304688 Z M 136.296875 162.304688 " fill-opacity="1" fill-rule="nonzero"/><path fill="#1b136a" d="M 160.863281 143.902344 C 160.671875 143.105469 160.433594 142.113281 159.898438 141.46875 C 159.742188 141.28125 159.480469 141.488281 159.523438 141.6875 C 159.664062 142.378906 161.820312 146.15625 159.472656 151.402344 C 159.304688 151.78125 159.847656 152.117188 160.042969 151.734375 C 161.15625 149.53125 161.519531 146.660156 160.863281 143.902344 Z M 160.863281 143.902344 " fill-opacity="1" fill-rule="nonzero"/><path fill="#f3d55b" d="M 182.3125 62.8125 L 182.375 62.8125 L 296.679688 32.152344 C 303.421875 30.378906 310.328125 34.378906 312.136719 41.109375 L 328.414062 101.925781 L 335.792969 129.492188 L 335.792969 129.554688 L 370.488281 258.875 C 372.296875 265.597656 368.316406 272.515625 361.59375 274.328125 L 292.015625 292.941406 Z M 182.3125 62.8125 " fill-opacity="1" fill-rule="nonzero"/><path fill="#f9eab0" d="M 76.203125 38.714844 C 79.171875 36.726562 82.855469 36.125 86.296875 37.074219 L 330.050781 102.367188 C 336.773438 104.183594 340.753906 111.101562 338.949219 117.820312 L 273.65625 361.574219 C 271.84375 368.296875 264.925781 372.277344 258.199219 370.472656 L 14.445312 305.179688 C 7.726562 303.363281 3.746094 296.445312 5.554688 289.722656 L 58.039062 93.789062 Z M 76.203125 38.714844 " fill-opacity="1" fill-rule="nonzero"/><path fill="#802f34" d="M 290.335938 147.027344 C 289.785156 147.03125 289.238281 146.957031 288.703125 146.816406 L 198.96875 122.800781 C 195.605469 121.898438 193.609375 118.4375 194.515625 115.074219 C 195.414062 111.707031 198.871094 109.710938 202.238281 110.613281 L 291.96875 134.65625 C 295.027344 135.476562 297.003906 138.433594 296.59375 141.574219 C 296.183594 144.710938 293.507812 147.058594 290.34375 147.0625 Z M 290.335938 147.027344 " fill-opacity="1" fill-rule="nonzero"/><path fill="#802f34" d="M 280.53125 183.617188 C 279.984375 183.617188 279.433594 183.546875 278.898438 183.402344 L 217.894531 167.082031 C 215.710938 166.507812 213.996094 164.808594 213.40625 162.625 C 212.820312 160.441406 213.445312 158.113281 215.042969 156.515625 C 216.644531 154.917969 218.976562 154.300781 221.15625 154.894531 L 282.160156 171.214844 C 285.21875 172.035156 287.195312 174.988281 286.785156 178.128906 C 286.371094 181.269531 283.699219 183.617188 280.53125 183.617188 Z M 280.53125 183.617188 " fill-opacity="1" fill-rule="nonzero"/><path fill="#802f34" d="M 270.761719 220.207031 C 270.207031 220.207031 269.65625 220.132812 269.121094 219.992188 L 193.234375 199.621094 C 189.867188 198.71875 187.875 195.257812 188.773438 191.890625 C 189.679688 188.527344 193.140625 186.53125 196.503906 187.433594 L 272.394531 207.804688 C 275.453125 208.621094 277.429688 211.582031 277.019531 214.722656 C 276.605469 217.863281 273.925781 220.207031 270.761719 220.207031 Z M 270.761719 220.207031 " fill-opacity="1" fill-rule="nonzero"/><path fill="#802f34" d="M 84.242188 209.394531 C 83.6875 209.394531 83.136719 209.324219 82.601562 209.179688 L 64.308594 204.277344 C 60.945312 203.375 58.949219 199.914062 59.855469 196.546875 C 60.753906 193.183594 64.21875 191.1875 67.582031 192.089844 L 85.875 196.988281 C 88.933594 197.8125 90.914062 200.769531 90.5 203.910156 C 90.085938 207.046875 87.410156 209.394531 84.242188 209.394531 Z M 84.242188 209.394531 " fill-opacity="1" fill-rule="nonzero"/><path fill="#802f34" d="M 260.945312 256.738281 C 260.394531 256.738281 259.84375 256.664062 259.3125 256.523438 L 119.164062 218.945312 C 115.800781 218.042969 113.804688 214.582031 114.703125 211.214844 C 115.605469 207.851562 119.066406 205.851562 122.433594 206.757812 L 262.582031 244.304688 C 265.636719 245.125 267.617188 248.082031 267.203125 251.222656 C 266.789062 254.355469 264.117188 256.703125 260.953125 256.703125 Z M 260.945312 256.738281 " fill-opacity="1" fill-rule="nonzero"/><path fill="#802f34" d="M 74.441406 245.949219 C 73.886719 245.953125 73.335938 245.878906 72.804688 245.734375 L 54.515625 240.84375 C 51.148438 239.941406 49.152344 236.480469 50.054688 233.113281 C 50.953125 229.75 54.417969 227.75 57.78125 228.652344 L 76.074219 233.546875 C 79.132812 234.367188 81.109375 237.328125 80.695312 240.46875 C 80.28125 243.605469 77.605469 245.953125 74.441406 245.949219 Z M 74.441406 245.949219 " fill-opacity="1" fill-rule="nonzero"/><path fill="#802f34" d="M 251.15625 293.300781 C 250.601562 293.300781 250.054688 293.226562 249.519531 293.085938 L 109.367188 255.53125 C 107.191406 254.949219 105.488281 253.246094 104.90625 251.074219 C 104.324219 248.894531 104.949219 246.570312 106.542969 244.980469 C 108.136719 243.386719 110.457031 242.761719 112.636719 243.347656 L 252.78125 280.898438 C 255.839844 281.714844 257.816406 284.675781 257.40625 287.8125 C 256.996094 290.949219 254.320312 293.296875 251.15625 293.300781 Z M 251.15625 293.300781 " fill-opacity="1" fill-rule="nonzero"/><path fill="#bdc3c7" d="M 187.800781 195.855469 L 146.230469 181.976562 L 181.9375 146.269531 L 195.808594 187.84375 C 196.554688 190.117188 195.953125 192.617188 194.265625 194.308594 C 192.574219 196 190.074219 196.597656 187.800781 195.855469 Z M 187.800781 195.855469 " fill-opacity="1" fill-rule="nonzero"/><path fill="#fb7b76" d="M 65.988281 30.324219 L 30.28125 66.03125 L 12.429688 48.175781 C 2.570312 38.316406 2.570312 22.332031 12.429688 12.472656 C 22.289062 2.609375 38.277344 2.609375 48.136719 12.472656 Z M 65.988281 30.324219 " fill-opacity="1" fill-rule="nonzero"/><path fill="#e64c3c" d="M 181.9375 146.269531 L 168.5625 159.644531 L 168.5625 159.710938 L 159.664062 168.601562 L 159.605469 168.601562 L 146.230469 181.976562 L 48.136719 83.882812 L 61.570312 70.507812 L 70.464844 61.613281 L 83.839844 48.175781 Z M 181.9375 146.269531 " fill-opacity="1" fill-rule="nonzero"/><path fill="#bdc3c7" d="M 30.285156 66.03125 L 65.988281 30.324219 L 83.839844 48.179688 L 48.136719 83.882812 Z M 30.285156 66.03125 " fill-opacity="1" fill-rule="nonzero"/><path fill="#c03a2b" d="M 92.734375 92.78125 C 91.53125 93.945312 89.925781 94.601562 88.253906 94.609375 C 86.597656 94.597656 85.015625 93.945312 83.839844 92.78125 L 61.570312 70.507812 L 70.464844 61.613281 L 92.734375 83.882812 C 95.179688 86.34375 95.179688 90.316406 92.734375 92.78125 Z M 92.734375 92.78125 " fill-opacity="1" fill-rule="nonzero"/><path fill="#c03a2b" d="M 168.5625 159.644531 L 168.5625 159.710938 L 159.664062 168.601562 L 159.605469 168.601562 L 101.628906 110.632812 C 100.027344 109.03125 99.402344 106.699219 99.988281 104.511719 C 100.574219 102.328125 102.28125 100.617188 104.46875 100.035156 C 106.652344 99.449219 108.984375 100.074219 110.585938 101.671875 Z M 168.5625 159.644531 " fill-opacity="1" fill-rule="nonzero"/></svg>